<svg xmlns="http://www.w3.org/2000/svg" width="48" height="48">
<path d="M 22,38 L 21,39 L 20,39 L 19,40 L 19,44 L 20,44 L 21,45 L 24,45 L 26,43 L 26,40 L 25,39 L 24,39 L 23,38 Z" fill="black" /><path d="M 31,37 L 29,39 L 29,41 L 32,44 L 34,44 L 37,41 L 37,39 L 35,37 Z" fill="black" /><path d="M 10,37 L 8,39 L 8,41 L 9,42 L 9,43 L 10,43 L 11,44 L 12,44 L 13,43 L 14,43 L 16,41 L 16,40 L 15,39 L 15,38 L 14,37 Z" fill="black" /><path d="M 39,29 L 38,30 L 37,30 L 37,31 L 36,32 L 36,33 L 37,34 L 37,35 L 38,35 L 39,36 L 41,36 L 42,35 L 43,35 L 43,34 L 44,33 L 44,31 L 42,29 Z" fill="black" /><path d="M 21,29 L 19,31 L 19,34 L 21,36 L 24,36 L 26,34 L 26,30 L 25,30 L 24,29 Z" fill="black" /><path d="M 3,29 L 1,31 L 1,34 L 2,35 L 3,35 L 4,36 L 6,36 L 7,35 L 8,35 L 8,34 L 9,33 L 9,32 L 8,31 L 8,30 L 7,30 L 6,29 Z" fill="black" /><path d="M 31,24 L 30,25 L 29,25 L 28,26 L 28,29 L 30,31 L 33,31 L 34,30 L 35,30 L 35,26 L 34,25 L 33,25 L 32,24 Z" fill="black" /><path d="M 13,24 L 12,25 L 11,25 L 10,26 L 10,29 L 12,31 L 16,31 L 17,30 L 17,26 L 16,25 L 15,25 L 14,24 Z" fill="black" /><path d="M 1,22 L 0,23 L 0,25 L 1,26 L 4,26 L 4,23 L 3,22 Z" fill="black" /><path d="M 43,19 L 42,20 L 41,20 L 40,21 L 40,25 L 41,26 L 46,26 L 47,25 L 47,21 L 46,20 L 45,20 L 44,19 Z" fill="black" /><path d="M 20,19 L 19,20 L 19,24 L 20,25 L 25,25 L 26,24 L 26,20 L 25,19 Z" fill="black" /><path d="M 30,14 L 28,16 L 28,19 L 29,20 L 30,20 L 31,21 L 32,21 L 33,20 L 34,20 L 35,19 L 35,15 L 34,15 L 33,14 Z" fill="black" /><path d="M 13,14 L 11,16 L 11,17 L 12,18 L 15,18 L 16,17 L 16,15 L 15,15 L 14,14 Z" fill="black" /><path d="M 1,14 L 0,15 L 0,16 L 2,18 L 4,18 L 5,17 L 5,15 L 4,14 Z" fill="black" /><path d="M 21,10 L 20,11 L 20,13 L 21,14 L 24,14 L 25,13 L 25,11 L 24,10 Z" fill="black" /><path d="M 7,8 L 6,9 L 5,9 L 5,10 L 6,11 L 8,11 L 9,10 Z" fill="black" /><path d="M 13,4 L 12,5 L 12,6 L 13,7 L 14,7 L 15,6 L 15,4 Z" fill="black" /><path d="M 32,3 L 31,4 L 30,4 L 30,5 L 29,6 L 29,8 L 31,10 L 35,10 L 36,9 L 37,10 L 37,11 L 36,12 L 36,13 L 37,14 L 37,15 L 38,15 L 39,16 L 41,16 L 42,15 L 43,15 L 43,14 L 44,13 L 44,11 L 42,9 L 38,9 L 37,8 L 37,6 L 36,5 L 36,4 L 35,4 L 34,3 Z" fill="black" /><path d="M 21,2 L 20,3 L 20,4 L 21,5 L 22,5 L 23,4 L 23,2 Z" fill="black" />
</svg>